<svg width="491" height="373" viewBox="0 0 491 373" fill="none" xmlns="http://www.w3.org/2000/svg">
<path d="M419.461 155.81H283.234C281.064 155.81 279.305 157.896 279.305 160.47V269.189C279.305 271.762 281.064 273.848 283.234 273.848H419.461C421.631 273.848 423.391 271.762 423.391 269.189V160.47C423.391 157.896 421.631 155.81 419.461 155.81Z" fill="white" stroke="#B8C8D8" stroke-width="2"/>
<path d="M414.191 129.842H287.396C285.376 129.842 283.738 131.314 283.738 133.13V141.899C283.738 143.715 285.376 145.187 287.396 145.187H414.191C416.211 145.187 417.849 143.715 417.849 141.899V133.13C417.849 131.314 416.211 129.842 414.191 129.842Z" fill="#1B4F7A"/>
<path d="M424.499 144.006H277.088V156.991H424.499V144.006Z" fill="#1B4F7A"/>
<path d="M320.185 147.563V138.109H322.184V142.01H326.242V138.109H328.237V147.563H326.242V143.658H322.184V147.563H320.185ZM338.573 142.836C338.573 143.867 338.377 144.744 337.987 145.467C337.599 146.191 337.069 146.743 336.399 147.125C335.731 147.503 334.98 147.693 334.146 147.693C333.305 147.693 332.551 147.502 331.884 147.12C331.216 146.738 330.688 146.186 330.3 145.463C329.912 144.74 329.718 143.864 329.718 142.836C329.718 141.805 329.912 140.928 330.3 140.205C330.688 139.481 331.216 138.93 331.884 138.552C332.551 138.17 333.305 137.979 334.146 137.979C334.98 137.979 335.731 138.17 336.399 138.552C337.069 138.93 337.599 139.481 337.987 140.205C338.377 140.928 338.573 141.805 338.573 142.836ZM336.546 142.836C336.546 142.168 336.446 141.605 336.246 141.146C336.049 140.688 335.771 140.34 335.411 140.103C335.051 139.866 334.629 139.748 334.146 139.748C333.662 139.748 333.241 139.866 332.881 140.103C332.521 140.34 332.241 140.688 332.041 141.146C331.844 141.605 331.745 142.168 331.745 142.836C331.745 143.504 331.844 144.067 332.041 144.526C332.241 144.984 332.521 145.332 332.881 145.569C333.241 145.806 333.662 145.924 334.146 145.924C334.629 145.924 335.051 145.806 335.411 145.569C335.771 145.332 336.049 144.984 336.246 144.526C336.446 144.067 336.546 143.504 336.546 142.836ZM345.183 140.828C345.146 140.455 344.987 140.166 344.707 139.96C344.427 139.754 344.047 139.651 343.567 139.651C343.241 139.651 342.965 139.697 342.74 139.789C342.516 139.878 342.343 140.003 342.223 140.163C342.106 140.323 342.048 140.505 342.048 140.708C342.042 140.877 342.077 141.025 342.154 141.151C342.234 141.277 342.343 141.386 342.482 141.479C342.62 141.568 342.78 141.647 342.962 141.714C343.144 141.779 343.337 141.834 343.544 141.88L344.393 142.084C344.806 142.176 345.184 142.299 345.529 142.453C345.873 142.607 346.172 142.796 346.424 143.021C346.677 143.245 346.872 143.51 347.011 143.815C347.152 144.119 347.225 144.469 347.228 144.863C347.225 145.441 347.077 145.943 346.784 146.368C346.495 146.789 346.077 147.117 345.529 147.351C344.984 147.582 344.327 147.697 343.558 147.697C342.794 147.697 342.13 147.58 341.563 147.346C341 147.112 340.56 146.766 340.243 146.308C339.929 145.846 339.764 145.275 339.749 144.595H341.683C341.705 144.912 341.796 145.177 341.956 145.389C342.119 145.598 342.336 145.757 342.607 145.864C342.88 145.969 343.19 146.021 343.534 146.021C343.873 146.021 344.167 145.972 344.416 145.874C344.669 145.775 344.864 145.638 345.002 145.463C345.141 145.287 345.21 145.086 345.21 144.858C345.21 144.646 345.147 144.467 345.021 144.323C344.898 144.178 344.716 144.055 344.476 143.953C344.239 143.852 343.948 143.759 343.604 143.676L342.574 143.418C341.777 143.224 341.148 142.921 340.686 142.508C340.224 142.096 339.995 141.54 339.998 140.842C339.995 140.269 340.147 139.769 340.455 139.341C340.766 138.914 341.192 138.58 341.734 138.34C342.276 138.1 342.891 137.979 343.581 137.979C344.282 137.979 344.895 138.1 345.418 138.34C345.944 138.58 346.354 138.914 346.646 139.341C346.938 139.769 347.089 140.265 347.098 140.828H345.183ZM348.572 147.563V138.109H352.302C353.019 138.109 353.63 138.246 354.135 138.52C354.64 138.79 355.024 139.167 355.289 139.651C355.557 140.131 355.691 140.685 355.691 141.313C355.691 141.94 355.555 142.494 355.285 142.975C355.014 143.455 354.621 143.829 354.107 144.096C353.596 144.364 352.978 144.498 352.252 144.498H349.874V142.896H351.928C352.313 142.896 352.63 142.83 352.879 142.698C353.132 142.562 353.319 142.376 353.443 142.139C353.569 141.899 353.632 141.623 353.632 141.313C353.632 140.999 353.569 140.725 353.443 140.491C353.319 140.254 353.132 140.071 352.879 139.941C352.627 139.809 352.307 139.743 351.919 139.743H350.571V147.563H348.572ZM358.988 138.109V147.563H356.989V138.109H358.988ZM360.273 139.757V138.109H368.038V139.757H365.143V147.563H363.167V139.757H360.273ZM369.791 147.563H367.649L370.912 138.109H373.488L376.748 147.563H374.606L372.237 140.269H372.164L369.791 147.563ZM369.657 143.847H374.716V145.407H369.657V143.847ZM377.886 147.563V138.109H379.885V145.915H383.938V147.563H377.886Z" fill="white"/>
<path d="M303.273 165.253H287.479C286.025 165.253 284.846 166.612 284.846 168.288V183.465C284.846 185.141 286.025 186.5 287.479 186.5H303.273C304.727 186.5 305.905 185.141 305.905 183.465V168.288C305.905 166.612 304.727 165.253 303.273 165.253Z" fill="#C8E4F8"/>
<path d="M303.273 200.665H287.479C286.025 200.665 284.846 202.023 284.846 203.7V218.876C284.846 220.552 286.025 221.911 287.479 221.911H303.273C304.727 221.911 305.905 220.552 305.905 218.876V203.7C305.905 202.023 304.727 200.665 303.273 200.665Z" fill="#C8E4F8"/>
<path d="M378.641 165.253H362.847C361.393 165.253 360.214 166.612 360.214 168.288V183.465C360.214 185.141 361.393 186.5 362.847 186.5H378.641C380.095 186.5 381.273 185.141 381.273 183.465V168.288C381.273 166.612 380.095 165.253 378.641 165.253Z" fill="#C8E4F8"/>
<path d="M378.641 200.665H362.847C361.393 200.665 360.214 202.023 360.214 203.7V218.876C360.214 220.552 361.393 221.911 362.847 221.911H378.641C380.095 221.911 381.273 220.552 381.273 218.876V203.7C381.273 202.023 380.095 200.665 378.641 200.665Z" fill="#C8E4F8"/>
<path d="M415.216 165.253H399.422C397.969 165.253 396.79 166.612 396.79 168.288V183.465C396.79 185.141 397.969 186.5 399.422 186.5H415.216C416.67 186.5 417.849 185.141 417.849 183.465V168.288C417.849 166.612 416.67 165.253 415.216 165.253Z" fill="#C8E4F8"/>
<path d="M415.216 200.665H399.422C397.969 200.665 396.79 202.023 396.79 203.7V218.876C396.79 220.552 397.969 221.911 399.422 221.911H415.216C416.67 221.911 417.849 220.552 417.849 218.876V203.7C417.849 202.023 416.67 200.665 415.216 200.665Z" fill="#C8E4F8"/>
<path d="M340.957 165.253H325.163C323.709 165.253 322.53 166.612 322.53 168.288V183.465C322.53 185.141 323.709 186.5 325.163 186.5H340.957C342.411 186.5 343.589 185.141 343.589 183.465V168.288C343.589 166.612 342.411 165.253 340.957 165.253Z" fill="#C8E4F8"/>
<path d="M340.957 200.665H325.163C323.709 200.665 322.53 202.023 322.53 203.7V218.876C322.53 220.552 323.709 221.911 325.163 221.911H340.957C342.411 221.911 343.589 220.552 343.589 218.876V203.7C343.589 202.023 342.411 200.665 340.957 200.665Z" fill="#C8E4F8"/>
<path d="M164.209 120.399H96.2542C87.7797 120.399 80.9097 126.959 80.9097 135.051V262.737C80.9097 270.829 87.7797 277.389 96.2542 277.389H164.209C172.683 277.389 179.553 270.829 179.553 262.737V135.051C179.553 126.959 172.683 120.399 164.209 120.399Z" fill="#2A3A4A"/>
<path d="M161.819 132.203H97.535C92.638 132.203 88.6682 136.43 88.6682 141.646V252.601C88.6682 257.817 92.638 262.044 97.535 262.044H161.819C166.716 262.044 170.686 257.817 170.686 252.601V141.646C170.686 136.43 166.716 132.203 161.819 132.203Z" fill="#1A2A3A"/>
<path d="M161.819 135.744H97.535C93.8622 135.744 90.8849 138.885 90.8849 142.759V252.668C90.8849 256.543 93.8622 259.684 97.535 259.684H161.819C165.492 259.684 168.47 256.543 168.47 252.668V142.759C168.47 138.885 165.492 135.744 161.819 135.744Z" fill="#0A1A2E"/>
<path opacity="0.8" d="M129.677 193.582C141.92 193.582 151.844 183.013 151.844 169.975C151.844 156.937 141.92 146.367 129.677 146.367C117.435 146.367 107.51 156.937 107.51 169.975C107.51 183.013 117.435 193.582 129.677 193.582Z" fill="#1B4F7A"/>
<path d="M124.882 161.9V174.991H122.114V161.9H124.882ZM129.416 174.991H126.45L130.969 161.9H134.536L139.048 174.991H136.082L132.803 164.891H132.701L129.416 174.991ZM129.23 169.845H136.236V172.005H129.23V169.845Z" fill="#7DD4FF"/>
<path opacity="0.7" d="M160.711 203.025H98.6434C96.807 203.025 95.3183 204.837 95.3183 207.072V208.421C95.3183 210.656 96.807 212.468 98.6434 212.468H160.711C162.547 212.468 164.036 210.656 164.036 208.421V207.072C164.036 204.837 162.547 203.025 160.711 203.025Z" fill="#2A5A8A"/>
<path opacity="0.5" d="M148.453 218.37H98.7099C96.8368 218.37 95.3183 219.729 95.3183 221.406V222.417C95.3183 224.094 96.8368 225.453 98.7099 225.453H148.453C150.326 225.453 151.844 224.094 151.844 222.417V221.406C151.844 219.729 150.326 218.37 148.453 218.37Z" fill="#2A5A8A"/>
<path opacity="0.4" d="M155.11 231.354H98.7027C96.8336 231.354 95.3183 232.94 95.3183 234.896V236.076C95.3183 238.032 96.8336 239.617 98.7027 239.617H155.11C156.979 239.617 158.494 238.032 158.494 236.076V234.896C158.494 232.94 156.979 231.354 155.11 231.354Z" fill="#2A5A8A"/>
<path d="M128.315 304.406C132.6 304.406 136.073 301.5 136.073 297.914C136.073 294.329 132.6 291.422 128.315 291.422C124.03 291.422 120.557 294.329 120.557 297.914C120.557 301.5 124.03 304.406 128.315 304.406Z" fill="#3A4A5A"/>
<path d="M231.646 100.332C274.494 100.332 309.23 87.1204 309.23 70.8228C309.23 54.5251 274.494 41.3133 231.646 41.3133C188.797 41.3133 154.061 54.5251 154.061 70.8228C154.061 87.1204 188.797 100.332 231.646 100.332Z" fill="#FFE066" stroke="#E8C000" stroke-width="2"/>
<path d="M180.425 73.7145V73.2557C180.434 71.6813 180.573 70.4264 180.843 69.4908C181.122 68.5552 181.527 67.7995 182.057 67.2237C182.588 66.648 183.227 66.1262 183.974 65.6584C184.531 65.2985 185.031 64.9252 185.472 64.5384C185.912 64.1515 186.263 63.7242 186.524 63.2564C186.785 62.7796 186.915 62.2488 186.915 61.6641C186.915 61.0433 186.767 60.4991 186.47 60.0312C186.173 59.5634 185.773 59.2036 185.269 58.9517C184.774 58.6998 184.226 58.5739 183.623 58.5739C183.038 58.5739 182.485 58.7043 181.963 58.9652C181.441 59.2171 181.014 59.5949 180.681 60.0987C180.348 60.5935 180.168 61.2098 180.141 61.9474H174.636C174.681 60.1482 175.112 58.6638 175.931 57.4943C176.75 56.3158 177.834 55.4387 179.183 54.8629C180.533 54.2782 182.022 53.9858 183.65 53.9858C185.44 53.9858 187.023 54.2827 188.4 54.8764C189.776 55.4612 190.856 56.3113 191.638 57.4268C192.421 58.5424 192.812 59.8873 192.812 61.4616C192.812 62.5142 192.637 63.4498 192.286 64.2685C191.944 65.0781 191.463 65.7978 190.842 66.4276C190.222 67.0483 189.488 67.6106 188.643 68.1143C187.932 68.5372 187.347 68.978 186.888 69.4368C186.439 69.8956 186.101 70.4264 185.876 71.0291C185.66 71.6319 185.548 72.3741 185.539 73.2557V73.7145H180.425ZM183.097 82.3509C182.197 82.3509 181.428 82.036 180.789 81.4062C180.159 80.7675 179.849 80.0028 179.858 79.1122C179.849 78.2306 180.159 77.4749 180.789 76.8452C181.428 76.2154 182.197 75.9006 183.097 75.9006C183.951 75.9006 184.702 76.2154 185.35 76.8452C185.998 77.4749 186.326 78.2306 186.335 79.1122C186.326 79.706 186.169 80.2502 185.863 80.745C185.566 81.2308 185.175 81.6222 184.689 81.919C184.203 82.2069 183.672 82.3509 183.097 82.3509Z" fill="#B87800"/>
<path d="M198.369 286.832H63.2019C58.2906 286.832 54.3093 290.252 54.3093 294.47V305.163C54.3093 309.381 58.2906 312.801 63.2019 312.801H198.369C203.281 312.801 207.262 309.381 207.262 305.163V294.47C207.262 290.252 203.281 286.832 198.369 286.832Z" fill="#CC2222"/>
<path d="M70.0995 303.254L68.9941 302.148L74.0527 297.113L75.1581 298.219L70.0995 303.254ZM74.0448 303.254L68.9863 298.219L70.0917 297.113L75.1503 302.148L74.0448 303.254ZM86.8505 295.734V303.734H85.3896L81.9091 298.699H81.8505V303.734H80.1591V295.734H81.6435L85.0966 300.765H85.1669V295.734H86.8505ZM90.9277 303.851C90.3209 303.851 89.7961 303.722 89.3534 303.465C88.9133 303.204 88.5735 302.842 88.3339 302.379C88.0943 301.913 87.9745 301.372 87.9745 300.758C87.9745 300.138 88.0943 299.596 88.3339 299.133C88.5735 298.666 88.9133 298.304 89.3534 298.047C89.7961 297.786 90.3209 297.656 90.9277 297.656C91.5344 297.656 92.0579 297.786 92.498 298.047C92.9407 298.304 93.2818 298.666 93.5214 299.133C93.761 299.596 93.8808 300.138 93.8808 300.758C93.8808 301.372 93.761 301.913 93.5214 302.379C93.2818 302.842 92.9407 303.204 92.498 303.465C92.0579 303.722 91.5344 303.851 90.9277 303.851ZM90.9355 302.562C91.2115 302.562 91.442 302.484 91.6269 302.328C91.8118 302.169 91.9511 301.953 92.0448 301.679C92.1412 301.406 92.1894 301.095 92.1894 300.746C92.1894 300.397 92.1412 300.086 92.0448 299.812C91.9511 299.539 91.8118 299.323 91.6269 299.164C91.442 299.005 91.2115 298.926 90.9355 298.926C90.6568 298.926 90.4224 299.005 90.2323 299.164C90.0448 299.323 89.9029 299.539 89.8066 299.812C89.7128 300.086 89.6659 300.397 89.6659 300.746C89.6659 301.095 89.7128 301.406 89.8066 301.679C89.9029 301.953 90.0448 302.169 90.2323 302.328C90.4224 302.484 90.6568 302.562 90.9355 302.562ZM97.5087 305.984V297.734H99.1493V298.742H99.2236C99.2965 298.581 99.4019 298.416 99.54 298.25C99.6806 298.081 99.8629 297.94 100.087 297.828C100.313 297.713 100.595 297.656 100.931 297.656C101.368 297.656 101.772 297.771 102.142 298C102.511 298.226 102.807 298.569 103.028 299.027C103.25 299.483 103.36 300.054 103.36 300.742C103.36 301.411 103.252 301.976 103.036 302.437C102.823 302.896 102.531 303.243 102.161 303.48C101.794 303.715 101.382 303.832 100.927 303.832C100.604 303.832 100.329 303.778 100.102 303.672C99.8785 303.565 99.6949 303.431 99.5517 303.269C99.4085 303.105 99.2991 302.94 99.2236 302.773H99.1728V305.984H97.5087ZM99.1376 300.734C99.1376 301.091 99.1871 301.402 99.2861 301.668C99.385 301.933 99.5282 302.14 99.7157 302.289C99.9032 302.435 100.131 302.508 100.399 302.508C100.67 302.508 100.899 302.433 101.087 302.285C101.274 302.134 101.416 301.926 101.513 301.66C101.612 301.392 101.661 301.083 101.661 300.734C101.661 300.388 101.613 300.083 101.517 299.82C101.42 299.557 101.278 299.351 101.091 299.203C100.903 299.054 100.673 298.98 100.399 298.98C100.129 298.98 99.8993 299.052 99.7118 299.195C99.5269 299.338 99.385 299.541 99.2861 299.804C99.1871 300.067 99.1376 300.377 99.1376 300.734ZM106.181 303.847C105.798 303.847 105.457 303.781 105.157 303.648C104.858 303.513 104.621 303.314 104.446 303.051C104.274 302.785 104.188 302.454 104.188 302.058C104.188 301.725 104.25 301.445 104.372 301.219C104.494 300.992 104.661 300.81 104.872 300.672C105.083 300.534 105.323 300.429 105.591 300.359C105.862 300.289 106.145 300.239 106.442 300.211C106.791 300.174 107.073 300.14 107.286 300.109C107.5 300.075 107.655 300.026 107.751 299.961C107.847 299.896 107.895 299.799 107.895 299.672V299.648C107.895 299.401 107.817 299.209 107.661 299.074C107.507 298.939 107.289 298.871 107.005 298.871C106.705 298.871 106.467 298.937 106.29 299.07C106.113 299.2 105.996 299.364 105.938 299.562L104.399 299.437C104.477 299.073 104.631 298.758 104.86 298.492C105.089 298.224 105.385 298.018 105.747 297.875C106.112 297.729 106.533 297.656 107.013 297.656C107.346 297.656 107.665 297.695 107.97 297.773C108.277 297.851 108.549 297.972 108.786 298.137C109.026 298.301 109.214 298.512 109.352 298.769C109.49 299.025 109.559 299.331 109.559 299.687V303.734H107.981V302.902H107.934C107.838 303.09 107.709 303.255 107.548 303.398C107.386 303.539 107.192 303.65 106.966 303.73C106.739 303.808 106.477 303.847 106.181 303.847ZM106.657 302.699C106.902 302.699 107.118 302.651 107.306 302.554C107.493 302.456 107.64 302.323 107.747 302.156C107.854 301.989 107.907 301.801 107.907 301.59V300.953C107.855 300.987 107.783 301.018 107.692 301.047C107.604 301.073 107.504 301.097 107.392 301.121C107.28 301.142 107.168 301.161 107.056 301.179C106.944 301.195 106.842 301.209 106.751 301.222C106.556 301.251 106.385 301.297 106.239 301.359C106.093 301.422 105.98 301.506 105.899 301.613C105.819 301.717 105.778 301.847 105.778 302.004C105.778 302.23 105.86 302.403 106.024 302.523C106.191 302.64 106.402 302.699 106.657 302.699ZM110.851 303.734V297.734H112.464V298.781H112.526C112.636 298.409 112.819 298.127 113.077 297.937C113.335 297.745 113.632 297.648 113.968 297.648C114.051 297.648 114.141 297.653 114.237 297.664C114.334 297.674 114.418 297.689 114.491 297.707V299.183C114.413 299.16 114.305 299.139 114.167 299.121C114.029 299.103 113.903 299.094 113.788 299.094C113.543 299.094 113.324 299.147 113.132 299.254C112.942 299.358 112.791 299.504 112.679 299.691C112.569 299.879 112.515 300.095 112.515 300.34V303.734H110.851ZM116.891 303.847C116.508 303.847 116.167 303.781 115.867 303.648C115.568 303.513 115.331 303.314 115.156 303.051C114.984 302.785 114.898 302.454 114.898 302.058C114.898 301.725 114.96 301.445 115.082 301.219C115.204 300.992 115.371 300.81 115.582 300.672C115.793 300.534 116.032 300.429 116.301 300.359C116.572 300.289 116.855 300.239 117.152 300.211C117.501 300.174 117.782 300.14 117.996 300.109C118.21 300.075 118.365 300.026 118.461 299.961C118.557 299.896 118.605 299.799 118.605 299.672V299.648C118.605 299.401 118.527 299.209 118.371 299.074C118.217 298.939 117.999 298.871 117.715 298.871C117.415 298.871 117.177 298.937 117 299.07C116.823 299.2 116.706 299.364 116.648 299.562L115.109 299.437C115.187 299.073 115.341 298.758 115.57 298.492C115.799 298.224 116.095 298.018 116.457 297.875C116.822 297.729 117.243 297.656 117.723 297.656C118.056 297.656 118.375 297.695 118.68 297.773C118.987 297.851 119.259 297.972 119.496 298.137C119.736 298.301 119.924 298.512 120.062 298.769C120.2 299.025 120.269 299.331 120.269 299.687V303.734H118.691V302.902H118.644C118.548 303.09 118.419 303.255 118.258 303.398C118.096 303.539 117.902 303.65 117.676 303.73C117.449 303.808 117.187 303.847 116.891 303.847ZM117.367 302.699C117.612 302.699 117.828 302.651 118.016 302.554C118.203 302.456 118.35 302.323 118.457 302.156C118.564 301.989 118.617 301.801 118.617 301.59V300.953C118.565 300.987 118.493 301.018 118.402 301.047C118.314 301.073 118.213 301.097 118.101 301.121C117.99 301.142 117.878 301.161 117.766 301.179C117.654 301.195 117.552 301.209 117.461 301.222C117.266 301.251 117.095 301.297 116.949 301.359C116.803 301.422 116.69 301.506 116.609 301.613C116.529 301.717 116.488 301.847 116.488 302.004C116.488 302.23 116.57 302.403 116.734 302.523C116.901 302.64 117.112 302.699 117.367 302.699ZM126.841 303.851C126.224 303.851 125.692 303.726 125.247 303.476C124.804 303.224 124.463 302.867 124.224 302.406C123.984 301.942 123.864 301.394 123.864 300.762C123.864 300.144 123.984 299.603 124.224 299.137C124.463 298.67 124.8 298.307 125.235 298.047C125.673 297.786 126.186 297.656 126.774 297.656C127.17 297.656 127.539 297.72 127.88 297.847C128.224 297.972 128.523 298.161 128.778 298.414C129.036 298.666 129.237 298.984 129.38 299.367C129.523 299.747 129.595 300.192 129.595 300.703V301.16H124.528V300.129H128.028C128.028 299.889 127.976 299.677 127.872 299.492C127.768 299.307 127.623 299.163 127.438 299.058C127.256 298.952 127.044 298.898 126.802 298.898C126.549 298.898 126.325 298.957 126.13 299.074C125.937 299.189 125.786 299.344 125.677 299.539C125.567 299.732 125.511 299.946 125.509 300.183V301.164C125.509 301.461 125.563 301.717 125.673 301.933C125.785 302.15 125.942 302.316 126.145 302.433C126.349 302.551 126.589 302.609 126.868 302.609C127.053 302.609 127.222 302.583 127.376 302.531C127.53 302.479 127.661 302.401 127.77 302.297C127.88 302.192 127.963 302.065 128.02 301.914L129.559 302.015C129.481 302.385 129.321 302.708 129.079 302.984C128.839 303.258 128.53 303.471 128.149 303.625C127.772 303.776 127.336 303.851 126.841 303.851ZM130.681 303.734V297.734H132.267V298.793H132.337C132.462 298.441 132.67 298.164 132.962 297.961C133.254 297.758 133.602 297.656 134.009 297.656C134.42 297.656 134.77 297.759 135.059 297.965C135.349 298.168 135.541 298.444 135.638 298.793H135.7C135.823 298.449 136.044 298.174 136.364 297.969C136.687 297.76 137.069 297.656 137.509 297.656C138.069 297.656 138.523 297.834 138.872 298.191C139.224 298.545 139.399 299.048 139.399 299.699V303.734H137.739V300.027C137.739 299.694 137.651 299.444 137.474 299.277C137.296 299.11 137.075 299.027 136.809 299.027C136.507 299.027 136.272 299.123 136.102 299.316C135.933 299.506 135.849 299.758 135.849 300.07V303.734H134.235V299.992C134.235 299.698 134.151 299.463 133.981 299.289C133.815 299.114 133.595 299.027 133.321 299.027C133.136 299.027 132.97 299.074 132.821 299.168C132.675 299.259 132.559 299.388 132.474 299.554C132.388 299.719 132.345 299.911 132.345 300.133V303.734H130.681ZM143.448 303.851C142.831 303.851 142.3 303.726 141.854 303.476C141.412 303.224 141.071 302.867 140.831 302.406C140.591 301.942 140.472 301.394 140.472 300.762C140.472 300.144 140.591 299.603 140.831 299.137C141.071 298.67 141.408 298.307 141.843 298.047C142.28 297.786 142.793 297.656 143.382 297.656C143.778 297.656 144.146 297.72 144.487 297.847C144.831 297.972 145.13 298.161 145.386 298.414C145.643 298.666 145.844 298.984 145.987 299.367C146.13 299.747 146.202 300.192 146.202 300.703V301.16H141.136V300.129H144.636C144.636 299.889 144.584 299.677 144.479 299.492C144.375 299.307 144.231 299.163 144.046 299.058C143.864 298.952 143.651 298.898 143.409 298.898C143.156 298.898 142.933 298.957 142.737 299.074C142.545 299.189 142.393 299.344 142.284 299.539C142.175 299.732 142.119 299.946 142.116 300.183V301.164C142.116 301.461 142.171 301.717 142.28 301.933C142.392 302.15 142.55 302.316 142.753 302.433C142.956 302.551 143.197 302.609 143.476 302.609C143.66 302.609 143.83 302.583 143.983 302.531C144.137 302.479 144.268 302.401 144.378 302.297C144.487 302.192 144.571 302.065 144.628 301.914L146.167 302.015C146.089 302.385 145.929 302.708 145.686 302.984C145.447 303.258 145.137 303.471 144.757 303.625C144.379 303.776 143.943 303.851 143.448 303.851ZM147.288 303.734V297.734H148.901V298.781H148.964C149.073 298.409 149.257 298.127 149.515 297.937C149.772 297.745 150.069 297.648 150.405 297.648C150.489 297.648 150.578 297.653 150.675 297.664C150.771 297.674 150.856 297.689 150.929 297.707V299.183C150.851 299.16 150.742 299.139 150.604 299.121C150.466 299.103 150.34 299.094 150.226 299.094C149.981 299.094 149.762 299.147 149.569 299.254C149.379 299.358 149.228 299.504 149.116 299.691C149.007 299.879 148.952 300.095 148.952 300.34V303.734H147.288ZM154.213 306.109C153.674 306.109 153.212 306.035 152.826 305.887C152.443 305.741 152.139 305.541 151.912 305.289C151.685 305.036 151.538 304.752 151.471 304.437L153.01 304.23C153.057 304.35 153.131 304.462 153.232 304.566C153.334 304.67 153.468 304.754 153.635 304.816C153.804 304.881 154.01 304.914 154.252 304.914C154.614 304.914 154.912 304.825 155.146 304.648C155.383 304.474 155.502 304.181 155.502 303.769V302.672H155.432C155.359 302.838 155.249 302.996 155.103 303.144C154.958 303.293 154.77 303.414 154.541 303.508C154.312 303.601 154.038 303.648 153.721 303.648C153.27 303.648 152.86 303.544 152.49 303.336C152.123 303.125 151.83 302.803 151.611 302.371C151.395 301.936 151.287 301.387 151.287 300.722C151.287 300.043 151.398 299.475 151.619 299.019C151.84 298.564 152.135 298.222 152.502 297.996C152.872 297.769 153.277 297.656 153.717 297.656C154.053 297.656 154.334 297.713 154.56 297.828C154.787 297.94 154.969 298.081 155.107 298.25C155.248 298.416 155.356 298.581 155.432 298.742H155.494V297.734H157.146V303.793C157.146 304.303 157.021 304.73 156.771 305.074C156.521 305.418 156.175 305.676 155.732 305.847C155.292 306.022 154.786 306.109 154.213 306.109ZM154.248 302.398C154.516 302.398 154.743 302.332 154.928 302.199C155.115 302.064 155.258 301.871 155.357 301.621C155.459 301.368 155.51 301.066 155.51 300.715C155.51 300.363 155.46 300.058 155.361 299.801C155.262 299.54 155.119 299.338 154.932 299.195C154.744 299.052 154.516 298.98 154.248 298.98C153.975 298.98 153.744 299.054 153.557 299.203C153.369 299.349 153.227 299.552 153.131 299.812C153.034 300.073 152.986 300.373 152.986 300.715C152.986 301.061 153.034 301.36 153.131 301.613C153.23 301.863 153.372 302.057 153.557 302.195C153.744 302.331 153.975 302.398 154.248 302.398ZM161.205 303.851C160.588 303.851 160.057 303.726 159.611 303.476C159.169 303.224 158.827 302.867 158.588 302.406C158.348 301.942 158.228 301.394 158.228 300.762C158.228 300.144 158.348 299.603 158.588 299.137C158.827 298.67 159.165 298.307 159.6 298.047C160.037 297.786 160.55 297.656 161.139 297.656C161.534 297.656 161.903 297.72 162.244 297.847C162.588 297.972 162.887 298.161 163.143 298.414C163.4 298.666 163.601 298.984 163.744 299.367C163.887 299.747 163.959 300.192 163.959 300.703V301.16H158.893V300.129H162.393C162.393 299.889 162.34 299.677 162.236 299.492C162.132 299.307 161.988 299.163 161.803 299.058C161.62 298.952 161.408 298.898 161.166 298.898C160.913 298.898 160.689 298.957 160.494 299.074C160.301 299.189 160.15 299.344 160.041 299.539C159.932 299.732 159.876 299.946 159.873 300.183V301.164C159.873 301.461 159.928 301.717 160.037 301.933C160.149 302.15 160.307 302.316 160.51 302.433C160.713 302.551 160.954 302.609 161.232 302.609C161.417 302.609 161.587 302.583 161.74 302.531C161.894 302.479 162.025 302.401 162.135 302.297C162.244 302.192 162.327 302.065 162.385 301.914L163.924 302.015C163.846 302.385 163.685 302.708 163.443 302.984C163.204 303.258 162.894 303.471 162.514 303.625C162.136 303.776 161.7 303.851 161.205 303.851ZM166.709 300.265V303.734H165.045V297.734H166.631V298.793H166.701C166.834 298.444 167.057 298.168 167.369 297.965C167.682 297.759 168.06 297.656 168.506 297.656C168.922 297.656 169.286 297.747 169.596 297.929C169.906 298.112 170.146 298.372 170.318 298.711C170.49 299.047 170.576 299.448 170.576 299.914V303.734H168.912V300.211C168.915 299.844 168.821 299.557 168.631 299.351C168.441 299.143 168.179 299.039 167.846 299.039C167.622 299.039 167.424 299.087 167.252 299.183C167.083 299.28 166.95 299.42 166.853 299.605C166.76 299.788 166.712 300.008 166.709 300.265ZM174.599 303.851C173.984 303.851 173.455 303.721 173.013 303.461C172.573 303.198 172.234 302.833 171.997 302.367C171.763 301.901 171.645 301.364 171.645 300.758C171.645 300.143 171.764 299.604 172.001 299.14C172.24 298.674 172.58 298.311 173.02 298.051C173.461 297.788 173.984 297.656 174.591 297.656C175.114 297.656 175.573 297.751 175.966 297.941C176.359 298.131 176.67 298.398 176.899 298.742C177.129 299.086 177.255 299.489 177.278 299.953H175.708C175.664 299.653 175.546 299.413 175.356 299.23C175.169 299.045 174.923 298.953 174.618 298.953C174.36 298.953 174.135 299.023 173.942 299.164C173.752 299.302 173.604 299.504 173.497 299.769C173.39 300.035 173.337 300.357 173.337 300.734C173.337 301.117 173.389 301.442 173.493 301.711C173.6 301.979 173.75 302.183 173.942 302.324C174.135 302.465 174.36 302.535 174.618 302.535C174.808 302.535 174.979 302.496 175.13 302.418C175.283 302.34 175.41 302.226 175.509 302.078C175.61 301.927 175.677 301.746 175.708 301.535H177.278C177.252 301.993 177.127 302.397 176.903 302.746C176.682 303.092 176.376 303.363 175.985 303.558C175.595 303.754 175.132 303.851 174.599 303.851ZM178.344 303.734V297.734H180.008V303.734H178.344ZM179.18 296.961C178.932 296.961 178.72 296.879 178.543 296.715C178.368 296.548 178.281 296.349 178.281 296.117C178.281 295.888 178.368 295.691 178.543 295.527C178.72 295.36 178.932 295.277 179.18 295.277C179.427 295.277 179.638 295.36 179.812 295.527C179.99 295.691 180.078 295.888 180.078 296.117C180.078 296.349 179.99 296.548 179.812 296.715C179.638 296.879 179.427 296.961 179.18 296.961ZM183.052 303.847C182.669 303.847 182.328 303.781 182.028 303.648C181.729 303.513 181.492 303.314 181.317 303.051C181.145 302.785 181.059 302.454 181.059 302.058C181.059 301.725 181.121 301.445 181.243 301.219C181.365 300.992 181.532 300.81 181.743 300.672C181.954 300.534 182.194 300.429 182.462 300.359C182.733 300.289 183.017 300.239 183.313 300.211C183.662 300.174 183.944 300.14 184.157 300.109C184.371 300.075 184.526 300.026 184.622 299.961C184.718 299.896 184.767 299.799 184.767 299.672V299.648C184.767 299.401 184.688 299.209 184.532 299.074C184.379 298.939 184.16 298.871 183.876 298.871C183.576 298.871 183.338 298.937 183.161 299.07C182.984 299.2 182.867 299.364 182.809 299.562L181.27 299.437C181.349 299.073 181.502 298.758 181.731 298.492C181.961 298.224 182.256 298.018 182.618 297.875C182.983 297.729 183.405 297.656 183.884 297.656C184.217 297.656 184.536 297.695 184.841 297.773C185.148 297.851 185.42 297.972 185.657 298.137C185.897 298.301 186.086 298.512 186.224 298.769C186.362 299.025 186.431 299.331 186.431 299.687V303.734H184.852V302.902H184.806C184.709 303.09 184.58 303.255 184.419 303.398C184.257 303.539 184.063 303.65 183.837 303.73C183.61 303.808 183.349 303.847 183.052 303.847ZM183.528 302.699C183.773 302.699 183.989 302.651 184.177 302.554C184.364 302.456 184.511 302.323 184.618 302.156C184.725 301.989 184.778 301.801 184.778 301.59V300.953C184.726 300.987 184.655 301.018 184.563 301.047C184.475 301.073 184.375 301.097 184.263 301.121C184.151 301.142 184.039 301.161 183.927 301.179C183.815 301.195 183.713 301.209 183.622 301.222C183.427 301.251 183.256 301.297 183.11 301.359C182.964 301.422 182.851 301.506 182.77 301.613C182.69 301.717 182.649 301.847 182.649 302.004C182.649 302.23 182.731 302.403 182.895 302.523C183.062 302.64 183.273 302.699 183.528 302.699ZM192.714 299.445L191.19 299.539C191.164 299.409 191.108 299.291 191.022 299.187C190.936 299.081 190.823 298.996 190.683 298.933C190.545 298.868 190.379 298.836 190.186 298.836C189.929 298.836 189.711 298.89 189.534 299C189.357 299.107 189.268 299.25 189.268 299.429C189.268 299.573 189.326 299.694 189.44 299.793C189.555 299.892 189.752 299.971 190.03 300.031L191.116 300.25C191.699 300.37 192.134 300.562 192.421 300.828C192.707 301.094 192.851 301.442 192.851 301.875C192.851 302.268 192.735 302.613 192.503 302.91C192.274 303.207 191.959 303.439 191.558 303.605C191.159 303.769 190.699 303.851 190.179 303.851C189.384 303.851 188.752 303.686 188.28 303.355C187.811 303.022 187.537 302.569 187.456 301.996L189.093 301.91C189.142 302.152 189.262 302.337 189.452 302.465C189.642 302.59 189.886 302.652 190.183 302.652C190.474 302.652 190.709 302.596 190.886 302.484C191.065 302.37 191.156 302.222 191.159 302.043C191.156 301.892 191.093 301.768 190.968 301.672C190.843 301.573 190.65 301.497 190.39 301.445L189.351 301.238C188.765 301.121 188.328 300.918 188.042 300.629C187.758 300.34 187.616 299.971 187.616 299.523C187.616 299.138 187.72 298.806 187.929 298.527C188.14 298.248 188.435 298.034 188.815 297.883C189.198 297.732 189.646 297.656 190.159 297.656C190.917 297.656 191.513 297.816 191.948 298.137C192.386 298.457 192.641 298.893 192.714 299.445Z" fill="white"/>
<path d="M202.166 64H200.353L203.115 56H205.295L208.052 64H206.24L204.236 57.8281H204.173L202.166 64ZM202.052 60.8555H206.334V62.1758H202.052V60.8555ZM210.648 60.5313V64H208.984V58H210.57V59.0586H210.64C210.773 58.7096 210.996 58.4336 211.308 58.2305C211.621 58.0247 212 57.9219 212.445 57.9219C212.862 57.9219 213.225 58.013 213.535 58.1953C213.845 58.3776 214.086 58.638 214.257 58.9766C214.429 59.3125 214.515 59.7135 214.515 60.1797V64H212.851V60.4766C212.854 60.1094 212.76 59.8229 212.57 59.6172C212.38 59.4089 212.118 59.3047 211.785 59.3047C211.561 59.3047 211.363 59.3529 211.191 59.4492C211.022 59.5456 210.889 59.6862 210.793 59.8711C210.699 60.0534 210.651 60.2734 210.648 60.5313ZM219.018 58V59.25H215.405V58H219.018ZM216.225 56.5625H217.889V62.1562C217.889 62.3099 217.913 62.4297 217.96 62.5156C218.006 62.599 218.072 62.6576 218.155 62.6914C218.241 62.7253 218.34 62.7422 218.452 62.7422C218.53 62.7422 218.608 62.7357 218.686 62.7227C218.764 62.707 218.824 62.6953 218.866 62.6875L219.128 63.9258C219.044 63.9518 218.927 63.9818 218.776 64.0156C218.625 64.0521 218.441 64.0742 218.225 64.082C217.824 64.0977 217.473 64.0443 217.171 63.9219C216.871 63.7995 216.638 63.6094 216.471 63.3516C216.305 63.0937 216.223 62.7682 216.225 62.375V56.5625ZM222.772 64.1172C222.155 64.1172 221.624 63.9922 221.178 63.7422C220.736 63.4896 220.394 63.1328 220.155 62.6719C219.915 62.2083 219.796 61.6602 219.796 61.0273C219.796 60.4102 219.915 59.8685 220.155 59.4023C220.394 58.9362 220.732 58.5729 221.167 58.3125C221.604 58.0521 222.117 57.9219 222.706 57.9219C223.102 57.9219 223.47 57.9857 223.811 58.1133C224.155 58.2383 224.454 58.4271 224.71 58.6797C224.967 58.9323 225.168 59.25 225.311 59.6328C225.454 60.013 225.526 60.4583 225.526 60.9687V61.4258H220.46V60.3945H223.96C223.96 60.1549 223.907 59.9427 223.803 59.7578C223.699 59.5729 223.555 59.4284 223.37 59.3242C223.187 59.2174 222.975 59.1641 222.733 59.1641C222.48 59.1641 222.256 59.2227 222.061 59.3398C221.868 59.4544 221.717 59.6094 221.608 59.8047C221.499 59.9974 221.443 60.2122 221.44 60.4492V61.4297C221.44 61.7266 221.495 61.9831 221.604 62.1992C221.716 62.4154 221.874 62.582 222.077 62.6992C222.28 62.8164 222.521 62.875 222.799 62.875C222.984 62.875 223.154 62.849 223.307 62.7969C223.461 62.7448 223.592 62.6667 223.702 62.5625C223.811 62.4583 223.894 62.3307 223.952 62.1797L225.491 62.2812C225.413 62.651 225.253 62.974 225.01 63.25C224.771 63.5234 224.461 63.737 224.081 63.8906C223.703 64.0417 223.267 64.1172 222.772 64.1172ZM230.822 56V64H229.158V56H230.822ZM233.866 64.1133C233.483 64.1133 233.142 64.0469 232.842 63.9141C232.543 63.7786 232.306 63.5794 232.131 63.3164C231.96 63.0508 231.874 62.7201 231.874 62.3242C231.874 61.9909 231.935 61.7109 232.057 61.4844C232.18 61.2578 232.346 61.0755 232.557 60.9375C232.768 60.7995 233.008 60.6953 233.276 60.625C233.547 60.5547 233.831 60.5052 234.128 60.4766C234.477 60.4401 234.758 60.4062 234.971 60.375C235.185 60.3411 235.34 60.2917 235.436 60.2266C235.532 60.1615 235.581 60.0651 235.581 59.9375V59.9141C235.581 59.6667 235.503 59.4753 235.346 59.3398C235.193 59.2044 234.974 59.1367 234.69 59.1367C234.391 59.1367 234.152 59.2031 233.975 59.3359C233.798 59.4661 233.681 59.6302 233.624 59.8281L232.085 59.7031C232.163 59.3385 232.316 59.0234 232.546 58.7578C232.775 58.4896 233.07 58.2839 233.432 58.1406C233.797 57.9948 234.219 57.9219 234.698 57.9219C235.031 57.9219 235.35 57.9609 235.655 58.0391C235.962 58.1172 236.234 58.2383 236.471 58.4023C236.711 58.5664 236.9 58.7773 237.038 59.0352C237.176 59.2904 237.245 59.5964 237.245 59.9531V64H235.667V63.168H235.62C235.523 63.3555 235.394 63.5208 235.233 63.6641C235.072 63.8047 234.878 63.9154 234.651 63.9961C234.424 64.0742 234.163 64.1133 233.866 64.1133ZM234.342 62.9648C234.587 62.9648 234.803 62.9167 234.991 62.8203C235.178 62.7214 235.325 62.5885 235.432 62.4219C235.539 62.2552 235.592 62.0664 235.592 61.8555V61.2188C235.54 61.2526 235.469 61.2839 235.378 61.3125C235.289 61.3385 235.189 61.3633 235.077 61.3867C234.965 61.4076 234.853 61.4271 234.741 61.4453C234.629 61.4609 234.527 61.4753 234.436 61.4883C234.241 61.5169 234.07 61.5625 233.924 61.625C233.779 61.6875 233.665 61.7721 233.585 61.8789C233.504 61.9831 233.463 62.1133 233.463 62.2695C233.463 62.4961 233.546 62.6693 233.71 62.7891C233.876 62.9062 234.087 62.9648 234.342 62.9648ZM243.293 64.0977C242.837 64.0977 242.424 63.9805 242.054 63.7461C241.687 63.5091 241.395 63.1615 241.179 62.7031C240.966 62.2422 240.859 61.6771 240.859 61.0078C240.859 60.3203 240.97 59.7487 241.191 59.293C241.412 58.8346 241.707 58.4922 242.074 58.2656C242.444 58.0365 242.849 57.9219 243.289 57.9219C243.625 57.9219 243.905 57.9792 244.129 58.0938C244.355 58.2057 244.537 58.3464 244.675 58.5156C244.816 58.6823 244.923 58.8464 244.996 59.0078H245.046V56H246.707V64H245.066V63.0391H244.996C244.918 63.2057 244.807 63.3711 244.664 63.5352C244.523 63.6966 244.339 63.8307 244.113 63.9375C243.889 64.0443 243.616 64.0977 243.293 64.0977ZM243.82 62.7734C244.088 62.7734 244.315 62.7005 244.5 62.5547C244.687 62.4062 244.83 62.1992 244.929 61.9336C245.031 61.668 245.082 61.3568 245.082 61C245.082 60.6432 245.032 60.3333 244.933 60.0703C244.834 59.8073 244.691 59.6042 244.504 59.4609C244.316 59.3177 244.088 59.2461 243.82 59.2461C243.546 59.2461 243.316 59.3203 243.129 59.4687C242.941 59.6172 242.799 59.8229 242.703 60.0859C242.606 60.349 242.558 60.6536 242.558 61C242.558 61.349 242.606 61.6576 242.703 61.9258C242.802 62.1914 242.944 62.3997 243.129 62.5508C243.316 62.6992 243.546 62.7734 243.82 62.7734ZM251.922 61.4453V58H253.587V64H251.989V62.9102H251.926C251.791 63.2617 251.566 63.5443 251.251 63.7578C250.938 63.9714 250.557 64.0781 250.106 64.0781C249.705 64.0781 249.352 63.987 249.047 63.8047C248.743 63.6224 248.505 63.3633 248.333 63.0273C248.163 62.6914 248.077 62.2891 248.075 61.8203V58H249.739V61.5234C249.741 61.8776 249.837 62.1576 250.024 62.3633C250.212 62.569 250.463 62.6719 250.778 62.6719C250.978 62.6719 251.166 62.6263 251.34 62.5352C251.515 62.4414 251.656 62.3034 251.762 62.1211C251.872 61.9388 251.925 61.7135 251.922 61.4453ZM257.129 64.0977C256.673 64.0977 256.26 63.9805 255.89 63.7461C255.523 63.5091 255.231 63.1615 255.015 62.7031C254.802 62.2422 254.695 61.6771 254.695 61.0078C254.695 60.3203 254.806 59.7487 255.027 59.293C255.248 58.8346 255.543 58.4922 255.91 58.2656C256.28 58.0365 256.685 57.9219 257.125 57.9219C257.461 57.9219 257.741 57.9792 257.964 58.0938C258.191 58.2057 258.373 58.3464 258.511 58.5156C258.652 58.6823 258.759 58.8464 258.832 59.0078H258.882V56H260.543V64H258.902V63.0391H258.832C258.754 63.2057 258.643 63.3711 258.5 63.5352C258.359 63.6966 258.175 63.8307 257.949 63.9375C257.725 64.0443 257.451 64.0977 257.129 64.0977ZM257.656 62.7734C257.924 62.7734 258.151 62.7005 258.336 62.5547C258.523 62.4062 258.666 62.1992 258.765 61.9336C258.867 61.668 258.918 61.3568 258.918 61C258.918 60.6432 258.868 60.3333 258.769 60.0703C258.67 59.8073 258.527 59.6042 258.339 59.4609C258.152 59.3177 257.924 59.2461 257.656 59.2461C257.382 59.2461 257.152 59.3203 256.964 59.4687C256.777 59.6172 256.635 59.8229 256.539 60.0859C256.442 60.349 256.394 60.6536 256.394 61C256.394 61.349 256.442 61.6576 256.539 61.9258C256.638 62.1914 256.78 62.3997 256.964 62.5508C257.152 62.6992 257.382 62.7734 257.656 62.7734ZM263.622 64.1133C263.239 64.1133 262.898 64.0469 262.598 63.9141C262.299 63.7786 262.062 63.5794 261.887 63.3164C261.715 63.0508 261.63 62.7201 261.63 62.3242C261.63 61.9909 261.691 61.7109 261.813 61.4844C261.935 61.2578 262.102 61.0755 262.313 60.9375C262.524 60.7995 262.764 60.6953 263.032 60.625C263.303 60.5547 263.587 60.5052 263.883 60.4766C264.232 60.4401 264.514 60.4062 264.727 60.375C264.941 60.3411 265.096 60.2917 265.192 60.2266C265.288 60.1615 265.337 60.0651 265.337 59.9375V59.9141C265.337 59.6667 265.258 59.4753 265.102 59.3398C264.949 59.2044 264.73 59.1367 264.446 59.1367C264.146 59.1367 263.908 59.2031 263.731 59.3359C263.554 59.4661 263.437 59.6302 263.38 59.8281L261.84 59.7031C261.919 59.3385 262.072 59.0234 262.301 58.7578C262.531 58.4896 262.826 58.2839 263.188 58.1406C263.553 57.9948 263.975 57.9219 264.454 57.9219C264.787 57.9219 265.106 57.9609 265.411 58.0391C265.718 58.1172 265.99 58.2383 266.227 58.4023C266.467 58.5664 266.656 58.7773 266.794 59.0352C266.932 59.2904 267.001 59.5964 267.001 59.9531V64H265.422V63.168H265.376C265.279 63.3555 265.15 63.5208 264.989 63.6641C264.827 63.8047 264.633 63.9154 264.407 63.9961C264.18 64.0742 263.919 64.1133 263.622 64.1133ZM264.098 62.9648C264.343 62.9648 264.559 62.9167 264.747 62.8203C264.934 62.7214 265.081 62.5885 265.188 62.4219C265.295 62.2552 265.348 62.0664 265.348 61.8555V61.2188C265.296 61.2526 265.225 61.2839 265.133 61.3125C265.045 61.3385 264.945 61.3633 264.833 61.3867C264.721 61.4076 264.609 61.4271 264.497 61.4453C264.385 61.4609 264.283 61.4753 264.192 61.4883C263.997 61.5169 263.826 61.5625 263.68 61.625C263.534 61.6875 263.421 61.7721 263.34 61.8789C263.26 61.9831 263.219 62.1133 263.219 62.2695C263.219 62.4961 263.301 62.6693 263.465 62.7891C263.632 62.9062 263.843 62.9648 264.098 62.9648ZM270.1 62.9062L270.057 63.3359C270.023 63.6797 269.958 64.0221 269.862 64.3633C269.768 64.707 269.669 65.0182 269.565 65.2969C269.463 65.5755 269.381 65.7943 269.319 65.9531H268.241C268.28 65.7995 268.333 65.5846 268.401 65.3086C268.469 65.0352 268.532 64.7279 268.592 64.3867C268.652 64.0456 268.69 63.6979 268.706 63.3437L268.725 62.9062H270.1ZM207.237 77.1172C206.622 77.1172 206.094 76.987 205.651 76.7266C205.211 76.4635 204.872 76.099 204.635 75.6328C204.401 75.1667 204.284 74.6302 204.284 74.0234C204.284 73.4089 204.402 72.8698 204.639 72.4062C204.879 71.9401 205.219 71.5768 205.659 71.3164C206.099 71.0534 206.622 70.9219 207.229 70.9219C207.753 70.9219 208.211 71.0169 208.604 71.207C208.997 71.3971 209.309 71.6641 209.538 72.0078C209.767 72.3516 209.893 72.7552 209.917 73.2188H208.346C208.302 72.9193 208.185 72.6784 207.995 72.4961C207.807 72.3112 207.561 72.2187 207.256 72.2187C206.999 72.2187 206.773 72.2891 206.581 72.4297C206.391 72.5677 206.242 72.7695 206.135 73.0352C206.029 73.3008 205.975 73.6224 205.975 74C205.975 74.3828 206.027 74.7083 206.131 74.9766C206.238 75.2448 206.388 75.4492 206.581 75.5898C206.773 75.7305 206.999 75.8008 207.256 75.8008C207.447 75.8008 207.617 75.7617 207.768 75.6836C207.922 75.6055 208.048 75.4922 208.147 75.3437C208.249 75.1927 208.315 75.0117 208.346 74.8008H209.917C209.891 75.2591 209.766 75.6628 209.542 76.0117C209.32 76.3581 209.014 76.6289 208.624 76.8242C208.233 77.0195 207.771 77.1172 207.237 77.1172ZM213.693 77.1172C213.086 77.1172 212.561 76.9883 212.119 76.7305C211.679 76.4701 211.339 76.1081 211.099 75.6445C210.86 75.1784 210.74 74.638 210.74 74.0234C210.74 73.4036 210.86 72.862 211.099 72.3984C211.339 71.9323 211.679 71.5703 212.119 71.3125C212.561 71.0521 213.086 70.9219 213.693 70.9219C214.3 70.9219 214.823 71.0521 215.263 71.3125C215.706 71.5703 216.047 71.9323 216.287 72.3984C216.526 72.862 216.646 73.4036 216.646 74.0234C216.646 74.638 216.526 75.1784 216.287 75.6445C216.047 76.1081 215.706 76.4701 215.263 76.7305C214.823 76.9883 214.3 77.1172 213.693 77.1172ZM213.701 75.8281C213.977 75.8281 214.207 75.75 214.392 75.5938C214.577 75.4349 214.716 75.2187 214.81 74.9453C214.907 74.6719 214.955 74.3607 214.955 74.0117C214.955 73.6628 214.907 73.3516 214.81 73.0781C214.716 72.8047 214.577 72.5885 214.392 72.4297C214.207 72.2708 213.977 72.1914 213.701 72.1914C213.422 72.1914 213.188 72.2708 212.998 72.4297C212.81 72.5885 212.668 72.8047 212.572 73.0781C212.478 73.3516 212.431 73.6628 212.431 74.0117C212.431 74.3607 212.478 74.6719 212.572 74.9453C212.668 75.2187 212.81 75.4349 212.998 75.5938C213.188 75.75 213.422 75.8281 213.701 75.8281ZM219.392 73.5313V77H217.728V71H219.314V72.0586H219.384C219.517 71.7096 219.74 71.4336 220.052 71.2305C220.365 71.0247 220.744 70.9219 221.189 70.9219C221.606 70.9219 221.969 71.013 222.279 71.1953C222.589 71.3776 222.83 71.638 223.002 71.9766C223.173 72.3125 223.259 72.7135 223.259 73.1797V77H221.595V73.4766C221.598 73.1094 221.504 72.8229 221.314 72.6172C221.124 72.4089 220.862 72.3047 220.529 72.3047C220.305 72.3047 220.107 72.3529 219.935 72.4492C219.766 72.5456 219.633 72.6862 219.537 72.8711C219.443 73.0534 219.395 73.2734 219.392 73.5313ZM229.563 72.7109L228.04 72.8047C228.014 72.6745 227.958 72.5573 227.872 72.4531C227.786 72.3464 227.672 72.2617 227.532 72.1992C227.394 72.1341 227.228 72.1016 227.036 72.1016C226.778 72.1016 226.56 72.1562 226.383 72.2656C226.206 72.3724 226.118 72.5156 226.118 72.6953C226.118 72.8385 226.175 72.9596 226.29 73.0586C226.404 73.1576 226.601 73.237 226.88 73.2969L227.965 73.5156C228.549 73.6354 228.984 73.8281 229.27 74.0937C229.557 74.3594 229.7 74.7083 229.7 75.1406C229.7 75.5339 229.584 75.8789 229.352 76.1758C229.123 76.4727 228.808 76.7044 228.407 76.8711C228.008 77.0352 227.549 77.1172 227.028 77.1172C226.234 77.1172 225.601 76.9518 225.13 76.6211C224.661 76.2878 224.386 75.8346 224.305 75.2617L225.942 75.1758C225.991 75.418 226.111 75.6029 226.301 75.7305C226.491 75.8555 226.735 75.918 227.032 75.918C227.324 75.918 227.558 75.862 227.735 75.75C227.915 75.6354 228.006 75.4883 228.008 75.3086C228.006 75.1576 227.942 75.0339 227.817 74.9375C227.692 74.8385 227.499 74.763 227.239 74.7109L226.2 74.5039C225.614 74.3867 225.178 74.1836 224.891 73.8945C224.607 73.6055 224.465 73.237 224.465 72.7891C224.465 72.4036 224.57 72.0716 224.778 71.793C224.989 71.5143 225.284 71.2995 225.665 71.1484C226.047 70.9974 226.495 70.9219 227.008 70.9219C227.766 70.9219 228.363 71.082 228.797 71.4023C229.235 71.7227 229.49 72.1589 229.563 72.7109ZM234.595 74.4453V71H236.259V77H234.662V75.9102H234.599C234.464 76.2617 234.239 76.5443 233.923 76.7578C233.611 76.9714 233.229 77.0781 232.779 77.0781C232.378 77.0781 232.025 76.987 231.72 76.8047C231.416 76.6224 231.177 76.3633 231.005 76.0273C230.836 75.6914 230.75 75.2891 230.748 74.8203V71H232.412V74.5234C232.414 74.8776 232.509 75.1576 232.697 75.3633C232.884 75.569 233.136 75.6719 233.451 75.6719C233.651 75.6719 233.839 75.6263 234.013 75.5352C234.188 75.4414 234.328 75.3034 234.435 75.1211C234.545 74.9388 234.598 74.7135 234.595 74.4453ZM239.255 69V77H237.59V69H239.255ZM243.779 71V72.25H240.166V71H243.779ZM240.986 69.5625H242.65V75.1562C242.65 75.3099 242.673 75.4297 242.72 75.5156C242.767 75.599 242.832 75.6576 242.916 75.6914C243.002 75.7253 243.101 75.7422 243.213 75.7422C243.291 75.7422 243.369 75.7357 243.447 75.7227C243.525 75.707 243.585 75.6953 243.627 75.6875L243.888 76.9258C243.805 76.9518 243.688 76.9818 243.537 77.0156C243.386 77.0521 243.202 77.0742 242.986 77.082C242.585 77.0977 242.233 77.0443 241.931 76.9219C241.632 76.7995 241.399 76.6094 241.232 76.3516C241.065 76.0937 240.983 75.7682 240.986 75.375V69.5625ZM246.574 77.1133C246.191 77.1133 245.85 77.0469 245.55 76.9141C245.251 76.7786 245.014 76.5794 244.839 76.3164C244.668 76.0508 244.582 75.7201 244.582 75.3242C244.582 74.9909 244.643 74.7109 244.765 74.4844C244.888 74.2578 245.054 74.0755 245.265 73.9375C245.476 73.7995 245.716 73.6953 245.984 73.625C246.255 73.5547 246.539 73.5052 246.836 73.4766C247.185 73.4401 247.466 73.4062 247.679 73.375C247.893 73.3411 248.048 73.2917 248.144 73.2266C248.241 73.1615 248.289 73.0651 248.289 72.9375V72.9141C248.289 72.6667 248.211 72.4753 248.054 72.3398C247.901 72.2044 247.682 72.1367 247.398 72.1367C247.099 72.1367 246.86 72.2031 246.683 72.3359C246.506 72.4661 246.389 72.6302 246.332 72.8281L244.793 72.7031C244.871 72.3385 245.024 72.0234 245.254 71.7578C245.483 71.4896 245.778 71.2839 246.14 71.1406C246.505 70.9948 246.927 70.9219 247.406 70.9219C247.739 70.9219 248.058 70.9609 248.363 71.0391C248.67 71.1172 248.942 71.2383 249.179 71.4023C249.419 71.5664 249.608 71.7773 249.746 72.0352C249.884 72.2904 249.953 72.5964 249.953 72.9531V77H248.375V76.168H248.328C248.231 76.3555 248.102 76.5208 247.941 76.6641C247.78 76.8047 247.586 76.9154 247.359 76.9961C247.132 77.0742 246.871 77.1133 246.574 77.1133ZM247.05 75.9648C247.295 75.9648 247.511 75.9167 247.699 75.8203C247.886 75.7214 248.033 75.5885 248.14 75.4219C248.247 75.2552 248.3 75.0664 248.3 74.8555V74.2188C248.248 74.2526 248.177 74.2839 248.086 74.3125C247.997 74.3385 247.897 74.3633 247.785 74.3867C247.673 74.4076 247.561 74.4271 247.449 74.4453C247.337 74.4609 247.235 74.4753 247.144 74.4883C246.949 74.5169 246.778 74.5625 246.632 74.625C246.487 74.6875 246.373 74.7721 246.293 74.8789C246.212 74.9831 246.171 75.1133 246.171 75.2695C246.171 75.4961 246.254 75.6693 246.418 75.7891C246.584 75.9062 246.795 75.9648 247.05 75.9648ZM257.637 74.4453V71H259.301V77H257.704V75.9102H257.641C257.506 76.2617 257.281 76.5443 256.965 76.7578C256.653 76.9714 256.271 77.0781 255.821 77.0781C255.42 77.0781 255.067 76.987 254.762 76.8047C254.458 76.6224 254.219 76.3633 254.047 76.0273C253.878 75.6914 253.792 75.2891 253.79 74.8203V71H255.454V74.5234C255.456 74.8776 255.551 75.1576 255.739 75.3633C255.926 75.569 256.178 75.6719 256.493 75.6719C256.693 75.6719 256.881 75.6263 257.055 75.5352C257.23 75.4414 257.37 75.3034 257.477 75.1211C257.587 74.9388 257.64 74.7135 257.637 74.4453ZM262.296 73.5313V77H260.632V71H262.218V72.0586H262.289C262.421 71.7096 262.644 71.4336 262.957 71.2305C263.269 71.0247 263.648 70.9219 264.093 70.9219C264.51 70.9219 264.873 71.013 265.183 71.1953C265.493 71.3776 265.734 71.638 265.906 71.9766C266.078 72.3125 266.164 72.7135 266.164 73.1797V77H264.5V73.4766C264.502 73.1094 264.408 72.8229 264.218 72.6172C264.028 72.4089 263.767 72.3047 263.433 72.3047C263.209 72.3047 263.011 72.3529 262.839 72.4492C262.67 72.5456 262.537 72.6862 262.441 72.8711C262.347 73.0534 262.299 73.2734 262.296 73.5313ZM217.374 90V84H218.96V85.0586H219.03C219.155 84.707 219.363 84.4297 219.655 84.2266C219.947 84.0234 220.296 83.9219 220.702 83.9219C221.113 83.9219 221.463 84.0247 221.753 84.2305C222.042 84.4336 222.234 84.7096 222.331 85.0586H222.393C222.516 84.7148 222.737 84.4401 223.057 84.2344C223.38 84.026 223.762 83.9219 224.202 83.9219C224.762 83.9219 225.216 84.1003 225.565 84.457C225.917 84.8112 226.092 85.3138 226.092 85.9648V90H224.432V86.293C224.432 85.9596 224.344 85.7096 224.167 85.543C223.99 85.3763 223.768 85.293 223.503 85.293C223.2 85.293 222.965 85.3893 222.796 85.582C222.626 85.7721 222.542 86.0234 222.542 86.3359V90H220.928V86.2578C220.928 85.9635 220.844 85.7292 220.674 85.5547C220.508 85.3802 220.288 85.293 220.014 85.293C219.829 85.293 219.663 85.3398 219.514 85.4336C219.368 85.5247 219.253 85.6536 219.167 85.8203C219.081 85.9844 219.038 86.1771 219.038 86.3984V90H217.374ZM230.141 90.1172C229.524 90.1172 228.993 89.9922 228.547 89.7422C228.105 89.4896 227.764 89.1328 227.524 88.6719C227.284 88.2083 227.165 87.6602 227.165 87.0273C227.165 86.4102 227.284 85.8685 227.524 85.4023C227.764 84.9362 228.101 84.5729 228.536 84.3125C228.973 84.0521 229.486 83.9219 230.075 83.9219C230.471 83.9219 230.839 83.9857 231.18 84.1133C231.524 84.2383 231.824 84.4271 232.079 84.6797C232.337 84.9323 232.537 85.25 232.68 85.6328C232.824 86.013 232.895 86.4583 232.895 86.9687V87.4258H227.829V86.3945H231.329C231.329 86.1549 231.277 85.9427 231.172 85.7578C231.068 85.5729 230.924 85.4284 230.739 85.3242C230.557 85.2174 230.344 85.1641 230.102 85.1641C229.85 85.1641 229.626 85.2227 229.43 85.3398C229.238 85.4544 229.087 85.6094 228.977 85.8047C228.868 85.9974 228.812 86.2122 228.809 86.4492V87.4297C228.809 87.7266 228.864 87.9831 228.973 88.1992C229.085 88.4154 229.243 88.582 229.446 88.6992C229.649 88.8164 229.89 88.875 230.169 88.875C230.353 88.875 230.523 88.849 230.676 88.7969C230.83 88.7448 230.962 88.6667 231.071 88.5625C231.18 88.4583 231.264 88.3307 231.321 88.1797L232.86 88.2812C232.782 88.651 232.622 88.974 232.38 89.25C232.14 89.5234 231.83 89.737 231.45 89.8906C231.072 90.0417 230.636 90.1172 230.141 90.1172ZM229.438 83.2266L230.266 81.4492H231.805L230.614 83.2266H229.438ZM236.192 90.0977C235.736 90.0977 235.324 89.9805 234.954 89.7461C234.587 89.5091 234.295 89.1615 234.079 88.7031C233.865 88.2422 233.758 87.6771 233.758 87.0078C233.758 86.3203 233.869 85.7487 234.09 85.293C234.312 84.8346 234.606 84.4922 234.973 84.2656C235.343 84.0365 235.748 83.9219 236.188 83.9219C236.524 83.9219 236.804 83.9792 237.028 84.0938C237.255 84.2057 237.437 84.3464 237.575 84.5156C237.715 84.6823 237.822 84.8464 237.895 85.0078H237.946V82H239.606V90H237.965V89.0391H237.895C237.817 89.2057 237.706 89.3711 237.563 89.5352C237.422 89.6966 237.239 89.8307 237.012 89.9375C236.788 90.0443 236.515 90.0977 236.192 90.0977ZM236.719 88.7734C236.988 88.7734 237.214 88.7005 237.399 88.5547C237.587 88.4062 237.73 88.1992 237.829 87.9336C237.93 87.668 237.981 87.3568 237.981 87C237.981 86.6432 237.932 86.3333 237.833 86.0703C237.734 85.8073 237.59 85.6042 237.403 85.4609C237.215 85.3177 236.988 85.2461 236.719 85.2461C236.446 85.2461 236.215 85.3203 236.028 85.4687C235.84 85.6172 235.699 85.8229 235.602 86.0859C235.506 86.349 235.458 86.6536 235.458 87C235.458 87.349 235.506 87.6576 235.602 87.9258C235.701 88.1914 235.843 88.3997 236.028 88.5508C236.215 88.6992 236.446 88.7734 236.719 88.7734ZM240.974 90V84H242.638V90H240.974ZM241.81 83.2266C241.563 83.2266 241.351 83.1445 241.173 82.9805C240.999 82.8138 240.912 82.6146 240.912 82.3828C240.912 82.1536 240.999 81.957 241.173 81.793C241.351 81.6263 241.563 81.543 241.81 81.543C242.058 81.543 242.268 81.6263 242.443 81.793C242.62 81.957 242.709 82.1536 242.709 82.3828C242.709 82.6146 242.62 82.8138 242.443 82.9805C242.268 83.1445 242.058 83.2266 241.81 83.2266ZM246.682 90.1172C246.068 90.1172 245.539 89.987 245.096 89.7266C244.656 89.4635 244.318 89.099 244.081 88.6328C243.846 88.1667 243.729 87.6302 243.729 87.0234C243.729 86.4089 243.848 85.8698 244.085 85.4062C244.324 84.9401 244.664 84.5768 245.104 84.3164C245.544 84.0534 246.068 83.9219 246.674 83.9219C247.198 83.9219 247.656 84.0169 248.049 84.207C248.443 84.3971 248.754 84.6641 248.983 85.0078C249.212 85.3516 249.338 85.7552 249.362 86.2188H247.792C247.747 85.9193 247.63 85.6784 247.44 85.4961C247.253 85.3112 247.006 85.2187 246.702 85.2187C246.444 85.2187 246.219 85.2891 246.026 85.4297C245.836 85.5677 245.687 85.7695 245.581 86.0352C245.474 86.3008 245.421 86.6224 245.421 87C245.421 87.3828 245.473 87.7083 245.577 87.9766C245.684 88.2448 245.833 88.4492 246.026 88.5898C246.219 88.7305 246.444 88.8008 246.702 88.8008C246.892 88.8008 247.062 88.7617 247.213 88.6836C247.367 88.6055 247.493 88.4922 247.592 88.3437C247.694 88.1927 247.76 88.0117 247.792 87.8008H249.362C249.336 88.2591 249.211 88.6628 248.987 89.0117C248.766 89.3581 248.46 89.6289 248.069 89.8242C247.678 90.0195 247.216 90.1172 246.682 90.1172ZM253.138 90.1172C252.532 90.1172 252.007 89.9883 251.564 89.7305C251.124 89.4701 250.784 89.1081 250.545 88.6445C250.305 88.1784 250.185 87.638 250.185 87.0234C250.185 86.4036 250.305 85.862 250.545 85.3984C250.784 84.9323 251.124 84.5703 251.564 84.3125C252.007 84.0521 252.532 83.9219 253.138 83.9219C253.745 83.9219 254.268 84.0521 254.709 84.3125C255.151 84.5703 255.492 84.9323 255.732 85.3984C255.972 85.862 256.091 86.4036 256.091 87.0234C256.091 87.638 255.972 88.1784 255.732 88.6445C255.492 89.1081 255.151 89.4701 254.709 89.7305C254.268 89.9883 253.745 90.1172 253.138 90.1172ZM253.146 88.8281C253.422 88.8281 253.653 88.75 253.838 88.5938C254.022 88.4349 254.162 88.2187 254.255 87.9453C254.352 87.6719 254.4 87.3607 254.4 87.0117C254.4 86.6628 254.352 86.3516 254.255 86.0781C254.162 85.8047 254.022 85.5885 253.838 85.4297C253.653 85.2708 253.422 85.1914 253.146 85.1914C252.867 85.1914 252.633 85.2708 252.443 85.4297C252.255 85.5885 252.114 85.8047 252.017 86.0781C251.923 86.3516 251.877 86.6628 251.877 87.0117C251.877 87.3607 251.923 87.6719 252.017 87.9453C252.114 88.2187 252.255 88.4349 252.443 88.5938C252.633 88.75 252.867 88.8281 253.146 88.8281Z" fill="#1B4F7A"/>
<path d="M252.955 190.041L260.782 199.149L252.955 208.257V190.041Z" fill="#2A8A2A"/>
<path d="M399.724 286.832H294.104C290.216 286.832 287.063 289.933 287.063 293.757V305.876C287.063 309.7 290.216 312.801 294.104 312.801H399.724C403.613 312.801 406.765 309.7 406.765 305.876V293.757C406.765 289.933 403.613 286.832 399.724 286.832Z" fill="#2A8A2A"/>
<path d="M249.941 196.113H204.734C203.069 196.113 201.72 196.424 201.72 196.807V198.022C201.72 198.405 203.069 198.716 204.734 198.716H249.941C251.606 198.716 252.955 198.405 252.955 198.022V196.807C252.955 196.424 251.606 196.113 249.941 196.113Z" fill="#2A8A2A"/>
<path d="M297.306 300.379L298.407 299.273L300.216 301.051L304.227 297.054L305.337 298.16L300.216 303.254L297.306 300.379ZM311.139 305.758H309.4L309.557 300.156H310.986L311.139 305.758ZM310.271 297.656C310.519 297.656 310.736 297.747 310.924 297.929C311.111 298.112 311.206 298.333 311.209 298.594C311.206 298.849 311.111 299.067 310.924 299.25C310.736 299.432 310.519 299.523 310.271 299.523C310.014 299.523 309.792 299.432 309.607 299.25C309.422 299.067 309.331 298.849 309.334 298.594C309.331 298.419 309.372 298.262 309.455 298.121C309.541 297.98 309.655 297.868 309.799 297.785C309.942 297.699 310.099 297.656 310.271 297.656ZM312.748 295.734H314.834L317.037 301.109H317.131L319.334 295.734H321.42V303.734H319.779V298.527H319.713L317.642 303.695H316.525L314.455 298.508H314.389V303.734H312.748V295.734ZM325.516 303.851C324.899 303.851 324.368 303.726 323.923 303.476C323.48 303.224 323.139 302.867 322.899 302.406C322.66 301.942 322.54 301.394 322.54 300.762C322.54 300.144 322.66 299.603 322.899 299.137C323.139 298.67 323.476 298.307 323.911 298.047C324.349 297.786 324.862 297.656 325.45 297.656C325.846 297.656 326.214 297.72 326.556 297.847C326.899 297.972 327.199 298.161 327.454 298.414C327.712 298.666 327.912 298.984 328.056 299.367C328.199 299.747 328.27 300.192 328.27 300.703V301.16H323.204V300.129H326.704C326.704 299.889 326.652 299.677 326.548 299.492C326.444 299.307 326.299 299.163 326.114 299.058C325.932 298.952 325.72 298.898 325.477 298.898C325.225 298.898 325.001 298.957 324.806 299.074C324.613 299.189 324.462 299.344 324.352 299.539C324.243 299.732 324.187 299.946 324.184 300.183V301.164C324.184 301.461 324.239 301.717 324.349 301.933C324.46 302.15 324.618 302.316 324.821 302.433C325.024 302.551 325.265 302.609 325.544 302.609C325.729 302.609 325.898 302.583 326.052 302.531C326.205 302.479 326.337 302.401 326.446 302.297C326.556 302.192 326.639 302.065 326.696 301.914L328.235 302.015C328.157 302.385 327.997 302.708 327.755 302.984C327.515 303.258 327.205 303.471 326.825 303.625C326.447 303.776 326.011 303.851 325.516 303.851ZM329.356 297.734H331.02V304.031C331.02 304.495 330.929 304.87 330.747 305.156C330.565 305.442 330.303 305.652 329.962 305.785C329.623 305.918 329.218 305.984 328.747 305.984C328.69 305.984 328.635 305.983 328.583 305.98C328.528 305.98 328.471 305.979 328.411 305.976V304.676C328.455 304.678 328.494 304.679 328.528 304.679C328.559 304.682 328.593 304.683 328.63 304.683C328.898 304.683 329.085 304.626 329.192 304.512C329.302 304.4 329.356 304.23 329.356 304.004V297.734ZM330.184 296.961C329.94 296.961 329.729 296.879 329.552 296.715C329.375 296.548 329.286 296.349 329.286 296.117C329.286 295.888 329.375 295.691 329.552 295.527C329.729 295.36 329.94 295.277 330.184 295.277C330.434 295.277 330.647 295.36 330.821 295.527C330.998 295.691 331.087 295.888 331.087 296.117C331.087 296.349 330.998 296.548 330.821 296.715C330.647 296.879 330.434 296.961 330.184 296.961ZM335.064 303.851C334.458 303.851 333.933 303.722 333.49 303.465C333.05 303.204 332.71 302.842 332.471 302.379C332.231 301.913 332.111 301.372 332.111 300.758C332.111 300.138 332.231 299.596 332.471 299.133C332.71 298.666 333.05 298.304 333.49 298.047C333.933 297.786 334.458 297.656 335.064 297.656C335.671 297.656 336.195 297.786 336.635 298.047C337.077 298.304 337.419 298.666 337.658 299.133C337.898 299.596 338.017 300.138 338.017 300.758C338.017 301.372 337.898 301.913 337.658 302.379C337.419 302.842 337.077 303.204 336.635 303.465C336.195 303.722 335.671 303.851 335.064 303.851ZM335.072 302.562C335.348 302.562 335.579 302.484 335.764 302.328C335.948 302.169 336.088 301.953 336.182 301.679C336.278 301.406 336.326 301.095 336.326 300.746C336.326 300.397 336.278 300.086 336.182 299.812C336.088 299.539 335.948 299.323 335.764 299.164C335.579 299.005 335.348 298.926 335.072 298.926C334.794 298.926 334.559 299.005 334.369 299.164C334.182 299.323 334.04 299.539 333.943 299.812C333.849 300.086 333.803 300.397 333.803 300.746C333.803 301.095 333.849 301.406 333.943 301.679C334.04 301.953 334.182 302.169 334.369 302.328C334.559 302.484 334.794 302.562 335.072 302.562ZM339.099 303.734V297.734H340.713V298.781H340.775C340.885 298.409 341.068 298.127 341.326 297.937C341.584 297.745 341.881 297.648 342.217 297.648C342.3 297.648 342.39 297.653 342.486 297.664C342.583 297.674 342.667 297.689 342.74 297.707V299.183C342.662 299.16 342.554 299.139 342.416 299.121C342.278 299.103 342.152 299.094 342.037 299.094C341.792 299.094 341.573 299.147 341.381 299.254C341.191 299.358 341.04 299.504 340.928 299.691C340.818 299.879 340.764 300.095 340.764 300.34V303.734H339.099ZM351.74 297.734L349.642 303.734H347.767L345.67 297.734H347.428L348.674 302.027H348.736L349.978 297.734H351.74ZM355.133 303.851C354.516 303.851 353.984 303.726 353.539 303.476C353.096 303.224 352.755 302.867 352.516 302.406C352.276 301.942 352.156 301.394 352.156 300.762C352.156 300.144 352.276 299.603 352.516 299.137C352.755 298.67 353.092 298.307 353.527 298.047C353.965 297.786 354.478 297.656 355.066 297.656C355.462 297.656 355.831 297.72 356.172 297.847C356.516 297.972 356.815 298.161 357.07 298.414C357.328 298.666 357.529 298.984 357.672 299.367C357.815 299.747 357.887 300.192 357.887 300.703V301.16H352.82V300.129H356.32C356.32 299.889 356.268 299.677 356.164 299.492C356.06 299.307 355.915 299.163 355.73 299.058C355.548 298.952 355.336 298.898 355.094 298.898C354.841 298.898 354.617 298.957 354.422 299.074C354.229 299.189 354.078 299.344 353.969 299.539C353.859 299.732 353.803 299.946 353.801 300.183V301.164C353.801 301.461 353.855 301.717 353.965 301.933C354.077 302.15 354.234 302.316 354.437 302.433C354.641 302.551 354.881 302.609 355.16 302.609C355.345 302.609 355.514 302.583 355.668 302.531C355.822 302.479 355.953 302.401 356.062 302.297C356.172 302.192 356.255 302.065 356.312 301.914L357.851 302.015C357.773 302.385 357.613 302.708 357.371 302.984C357.131 303.258 356.822 303.471 356.441 303.625C356.064 303.776 355.627 303.851 355.133 303.851ZM363.229 303.847C362.847 303.847 362.505 303.781 362.206 303.648C361.906 303.513 361.669 303.314 361.495 303.051C361.323 302.785 361.237 302.454 361.237 302.058C361.237 301.725 361.298 301.445 361.421 301.219C361.543 300.992 361.71 300.81 361.921 300.672C362.132 300.534 362.371 300.429 362.64 300.359C362.91 300.289 363.194 300.239 363.491 300.211C363.84 300.174 364.121 300.14 364.335 300.109C364.548 300.075 364.703 300.026 364.8 299.961C364.896 299.896 364.944 299.799 364.944 299.672V299.648C364.944 299.401 364.866 299.209 364.71 299.074C364.556 298.939 364.337 298.871 364.054 298.871C363.754 298.871 363.516 298.937 363.339 299.07C363.162 299.2 363.044 299.364 362.987 299.562L361.448 299.437C361.526 299.073 361.68 298.758 361.909 298.492C362.138 298.224 362.434 298.018 362.796 297.875C363.16 297.729 363.582 297.656 364.061 297.656C364.395 297.656 364.714 297.695 365.018 297.773C365.326 297.851 365.598 297.972 365.835 298.137C366.074 298.301 366.263 298.512 366.401 298.769C366.539 299.025 366.608 299.331 366.608 299.687V303.734H365.03V302.902H364.983C364.887 303.09 364.758 303.255 364.597 303.398C364.435 303.539 364.241 303.65 364.015 303.73C363.788 303.808 363.526 303.847 363.229 303.847ZM363.706 302.699C363.951 302.699 364.167 302.651 364.354 302.554C364.542 302.456 364.689 302.323 364.796 302.156C364.903 301.989 364.956 301.801 364.956 301.59V300.953C364.904 300.987 364.832 301.018 364.741 301.047C364.653 301.073 364.552 301.097 364.44 301.121C364.328 301.142 364.216 301.161 364.104 301.179C363.992 301.195 363.891 301.209 363.8 301.222C363.604 301.251 363.434 301.297 363.288 301.359C363.142 301.422 363.029 301.506 362.948 301.613C362.867 301.717 362.827 301.847 362.827 302.004C362.827 302.23 362.909 302.403 363.073 302.523C363.24 302.64 363.451 302.699 363.706 302.699ZM371.864 305.984V302.773H371.813C371.735 302.94 371.625 303.105 371.481 303.269C371.341 303.431 371.157 303.565 370.931 303.672C370.707 303.778 370.433 303.832 370.11 303.832C369.655 303.832 369.242 303.715 368.872 303.48C368.505 303.243 368.213 302.896 367.997 302.437C367.783 301.976 367.677 301.411 367.677 300.742C367.677 300.054 367.787 299.483 368.009 299.027C368.23 298.569 368.524 298.226 368.891 298C369.261 297.771 369.666 297.656 370.106 297.656C370.442 297.656 370.722 297.713 370.946 297.828C371.173 297.94 371.355 298.081 371.493 298.25C371.634 298.416 371.74 298.581 371.813 298.742H371.884V297.734H373.524V305.984H371.864ZM370.638 302.508C370.906 302.508 371.132 302.435 371.317 302.289C371.505 302.14 371.648 301.933 371.747 301.668C371.849 301.402 371.899 301.091 371.899 300.734C371.899 300.377 371.85 300.067 371.751 299.804C371.652 299.541 371.509 299.338 371.321 299.195C371.134 299.052 370.906 298.98 370.638 298.98C370.364 298.98 370.134 299.054 369.946 299.203C369.759 299.351 369.617 299.557 369.52 299.82C369.424 300.083 369.376 300.388 369.376 300.734C369.376 301.083 369.424 301.392 369.52 301.66C369.619 301.926 369.761 302.134 369.946 302.285C370.134 302.433 370.364 302.508 370.638 302.508ZM378.708 301.179V297.734H380.372V303.734H378.774V302.644H378.712C378.576 302.996 378.351 303.278 378.036 303.492C377.724 303.706 377.342 303.812 376.891 303.812C376.49 303.812 376.138 303.721 375.833 303.539C375.528 303.357 375.29 303.097 375.118 302.762C374.949 302.426 374.863 302.023 374.86 301.554V297.734H376.524V301.258C376.527 301.612 376.622 301.892 376.809 302.097C376.997 302.303 377.248 302.406 377.563 302.406C377.764 302.406 377.951 302.36 378.126 302.269C378.3 302.176 378.441 302.038 378.548 301.855C378.657 301.673 378.71 301.448 378.708 301.179ZM381.703 303.734V297.734H383.367V303.734H381.703ZM381.941 296.961L382.769 295.183H384.308L383.117 296.961H381.941ZM386.688 295.734L386.536 301.336H385.106L384.95 295.734H386.688ZM385.821 303.836C385.563 303.836 385.342 303.745 385.157 303.562C384.972 303.377 384.881 303.156 384.884 302.898C384.881 302.643 384.972 302.424 385.157 302.242C385.342 302.06 385.563 301.969 385.821 301.969C386.069 301.969 386.286 302.06 386.474 302.242C386.661 302.424 386.756 302.643 386.759 302.898C386.756 303.07 386.71 303.228 386.622 303.371C386.536 303.512 386.423 303.625 386.282 303.711C386.141 303.794 385.988 303.836 385.821 303.836Z" fill="white"/>
<path d="M366.566 238.437H336.129C334.128 238.437 332.506 240.118 332.506 242.192V267.732C332.506 269.806 334.128 271.487 336.129 271.487H366.566C368.567 271.487 370.19 269.806 370.19 267.732V242.192C370.19 240.118 368.567 238.437 366.566 238.437Z" fill="#1B4F7A"/>
<path d="M348.078 240.797H337.992C336.798 240.797 335.831 241.854 335.831 243.158V266.766C335.831 268.07 336.798 269.127 337.992 269.127H348.078C349.272 269.127 350.239 268.07 350.239 266.766V243.158C350.239 241.854 349.272 240.797 348.078 240.797Z" fill="#2A70A0"/>
<path d="M365.812 240.797H355.726C354.532 240.797 353.564 241.854 353.564 243.158V266.766C353.564 268.07 354.532 269.127 355.726 269.127H365.812C367.005 269.127 367.973 268.07 367.973 266.766V243.158C367.973 241.854 367.005 240.797 365.812 240.797Z" fill="#2A70A0"/>
<path d="M375.373 269.127H328.431C327.621 269.127 326.964 269.831 326.964 270.7V272.274C326.964 273.143 327.621 273.848 328.431 273.848H375.373C376.183 273.848 376.84 273.143 376.84 272.274V270.7C376.84 269.831 376.183 269.127 375.373 269.127Z" fill="#C0CCDA"/>
</svg>
